<svg width="50" height="50" viewBox="0 0 50 50" fill="none" xmlns="http://www.w3.org/2000/svg">
<path d="M11 49C5.47715 49 1 44.5228 1 39L0.999998 11C0.999998 5.47715 5.47715 1 11 1L39 1C44.5228 1 49 5.47715 49 11L49 39C49 44.5228 44.5228 49 39 49L11 49Z" stroke="white"/>
<g clip-path="url(#clip0_842_1681)">
<path d="M33.6625 16.3375C33.2125 15.8875 32.5375 15.8875 32.0875 16.3375L25 23.425L17.9125 16.3375C17.4625 15.8875 16.7875 15.8875 16.3375 16.3375C15.8875 16.7875 15.8875 17.4625 16.3375 17.9125L23.425 25L16.3375 32.0875C15.8875 32.5375 15.8875 33.2125 16.3375 33.6625C16.5625 33.8875 16.7875 34 17.125 34C17.4625 34 17.6875 33.8875 17.9125 33.6625L25 26.575L32.0875 33.6625C32.3125 33.8875 32.5375 34 32.875 34C33.2125 34 33.4375 33.8875 33.6625 33.6625C34.1125 33.2125 34.1125 32.5375 33.6625 32.0875L26.575 25L33.6625 17.9125C34.1125 17.4625 34.1125 16.7875 33.6625 16.3375Z" fill="#49388C"/>
<path d="M33.6625 16.3375C33.2125 15.8875 32.5375 15.8875 32.0875 16.3375L25 23.425L17.9125 16.3375C17.4625 15.8875 16.7875 15.8875 16.3375 16.3375C15.8875 16.7875 15.8875 17.4625 16.3375 17.9125L23.425 25L16.3375 32.0875C15.8875 32.5375 15.8875 33.2125 16.3375 33.6625C16.5625 33.8875 16.7875 34 17.125 34C17.4625 34 17.6875 33.8875 17.9125 33.6625L25 26.575L32.0875 33.6625C32.3125 33.8875 32.5375 34 32.875 34C33.2125 34 33.4375 33.8875 33.6625 33.6625C34.1125 33.2125 34.1125 32.5375 33.6625 32.0875L26.575 25L33.6625 17.9125C34.1125 17.4625 34.1125 16.7875 33.6625 16.3375Z" fill="white"/>
</g>
<defs>
<clipPath id="clip0_842_1681">
<rect width="24" height="24" fill="white" transform="translate(13 13)"/>
</clipPath>
</defs>
</svg>
