<svg width="18" height="18" viewBox="0 0 18 18" fill="none" xmlns="http://www.w3.org/2000/svg">
<path d="M17.6625 0.3375C17.2125 -0.1125 16.5375 -0.1125 16.0875 0.3375L9 7.425L1.9125 0.3375C1.4625 -0.1125 0.7875 -0.1125 0.3375 0.3375C-0.1125 0.7875 -0.1125 1.4625 0.3375 1.9125L7.425 9L0.3375 16.0875C-0.1125 16.5375 -0.1125 17.2125 0.3375 17.6625C0.5625 17.8875 0.7875 18 1.125 18C1.4625 18 1.6875 17.8875 1.9125 17.6625L9 10.575L16.0875 17.6625C16.3125 17.8875 16.5375 18 16.875 18C17.2125 18 17.4375 17.8875 17.6625 17.6625C18.1125 17.2125 18.1125 16.5375 17.6625 16.0875L10.575 9L17.6625 1.9125C18.1125 1.4625 18.1125 0.7875 17.6625 0.3375Z" fill="#49388C"/>
<path d="M17.6625 0.3375C17.2125 -0.1125 16.5375 -0.1125 16.0875 0.3375L9 7.425L1.9125 0.3375C1.4625 -0.1125 0.7875 -0.1125 0.3375 0.3375C-0.1125 0.7875 -0.1125 1.4625 0.3375 1.9125L7.425 9L0.3375 16.0875C-0.1125 16.5375 -0.1125 17.2125 0.3375 17.6625C0.5625 17.8875 0.7875 18 1.125 18C1.4625 18 1.6875 17.8875 1.9125 17.6625L9 10.575L16.0875 17.6625C16.3125 17.8875 16.5375 18 16.875 18C17.2125 18 17.4375 17.8875 17.6625 17.6625C18.1125 17.2125 18.1125 16.5375 17.6625 16.0875L10.575 9L17.6625 1.9125C18.1125 1.4625 18.1125 0.7875 17.6625 0.3375Z" fill="white"/>
</svg>
